D:\PredSim\limbproperties\Ratio75\Ratio75_quasi_random_3.5.mot
version=1
nRows=4
nColumns=124
inDegrees=yes
endheader
                time	         pelvis_tilt	         pelvis_list	     pelvis_rotation	           pelvis_tx	           pelvis_ty	           pelvis_tz	       hip_flexion_r	     hip_adduction_r	      hip_rotation_r	        knee_angle_r	       ankle_angle_r	    subtalar_angle_r	         mtp_angle_r	       hip_flexion_l	     hip_adduction_l	      hip_rotation_l	        knee_angle_l	       ankle_angle_l	    subtalar_angle_l	         mtp_angle_l	    lumbar_extension	      lumbar_bending	     lumbar_rotation	          arm_flex_r	           arm_add_r	           arm_rot_r	        elbow_flex_r	          arm_flex_l	           arm_add_l	           arm_rot_l	        elbow_flex_l	glut_med1_r/activation	glut_med2_r/activation	glut_med3_r/activation	glut_min1_r/activation	glut_min2_r/activation	glut_min3_r/activation	semimem_r/activation	semiten_r/activation	bifemlh_r/activation	bifemsh_r/activation	    sar_r/activation	add_long_r/activation	add_brev_r/activation	add_mag1_r/activation	add_mag2_r/activation	add_mag3_r/activation	    tfl_r/activation	   pect_r/activation	   grac_r/activation	glut_max1_r/activation	glut_max2_r/activation	glut_max3_r/activation	iliacus_r/activation	  psoas_r/activation	quad_fem_r/activation	    gem_r/activation	   peri_r/activation	rect_fem_r/activation	vas_med_r/activation	vas_int_r/activation	vas_lat_r/activation	med_gas_r/activation	lat_gas_r/activation	 soleus_r/activation	tib_post_r/activation	flex_dig_r/activation	flex_hal_r/activation	tib_ant_r/activation	per_brev_r/activation	per_long_r/activation	per_tert_r/activation	ext_dig_r/activation	ext_hal_r/activation	glut_med1_l/activation	glut_med2_l/activation	glut_med3_l/activation	glut_min1_l/activation	glut_min2_l/activation	glut_min3_l/activation	semimem_l/activation	semiten_l/activation	bifemlh_l/activation	bifemsh_l/activation	    sar_l/activation	add_long_l/activation	add_brev_l/activation	add_mag1_l/activation	add_mag2_l/activation	add_mag3_l/activation	    tfl_l/activation	   pect_l/activation	   grac_l/activation	glut_max1_l/activation	glut_max2_l/activation	glut_max3_l/activation	iliacus_l/activation	  psoas_l/activation	quad_fem_l/activation	    gem_l/activation	   peri_l/activation	rect_fem_l/activation	vas_med_l/activation	vas_int_l/activation	vas_lat_l/activation	med_gas_l/activation	lat_gas_l/activation	 soleus_l/activation	tib_post_l/activation	flex_dig_l/activation	flex_hal_l/activation	tib_ant_l/activation	per_brev_l/activation	per_long_l/activation	per_tert_l/activation	ext_dig_l/activation	ext_hal_l/activation	 ercspn_r/activation	 ercspn_l/activation	 intobl_r/activation	 intobl_l/activation	 extobl_r/activation	 extobl_l/activation	
          0.51413537	        -12.12349723	         -0.72737400	         -2.46565359	          1.78098538	          0.88904173	          0.00196798	         39.07553283	          5.03418197	          1.89585671	        -28.03339308	         -3.75965180	          1.48392461	          0.21810507	          5.27442808	          2.42729502	          5.50724523	        -50.14148143	        -23.18867982	         12.02118389	         11.49348557	          2.77095740	          2.94622999	         -3.84109766	         -0.00742723	        -13.57172498	         14.69790040	         38.31892918	         -0.96768055	        -13.81063713	         19.37428692	         27.69238379	          0.61781453	          0.40760825	          0.27967570	          0.05000018	          0.05000001	          0.05112324	          0.76279850	          0.25144549	          0.65678819	          0.05000001	          0.05000000	          0.08890140	          0.33128143	          0.52021881	          0.41292750	          0.28866241	          0.05000000	          0.05565404	          0.21961874	          0.48777128	          0.31109857	          0.25033609	          0.05000000	          0.05000000	          0.54727058	          0.05000000	          0.60778922	          0.05000000	          0.08531282	          0.09579553	          0.11110441	          0.05000000	          0.05000000	          0.05000000	          0.46314853	          0.21877791	          0.05000000	          0.28792089	          0.10645519	          0.05893604	          0.55793553	          0.54253812	          0.49971768	          0.08719802	          0.05000000	          0.05000000	          0.17100504	          0.13769103	          0.08462431	          0.06437471	          0.05000001	          0.05000000	          0.16534990	          0.49076352	          0.85016139	          0.05893605	          0.05000001	          0.05000000	          0.05000000	          0.99748539	          0.93198330	          0.41749627	          0.05000000	          0.05000000	          0.05000000	          0.60543307	          0.71285398	          0.15787344	          0.50780323	          0.15744487	          0.97429990	          0.05893605	          0.06127311	          0.05663544	          0.15700376	          0.18270584	          0.10428784	          0.14681138	          0.16696824	          0.17779231	          0.11714576	          0.10073193	          0.10776291	          0.21687541	          0.67000449	          0.72964371	          0.24769208	          0.09076561	          0.05000000	          0.24452878	          0.05618838	          0.05000000	
          0.51927672	        -12.08131932	         -0.76727093	         -2.26512960	          1.79945845	          0.88692627	          0.00215576	         38.46545022	          5.23616220	          2.29441946	        -27.92538458	         -2.66829650	          1.26900740	          0.03947565	          6.17316597	          2.30604554	          5.30315774	        -51.89216434	        -22.24855727	         11.85826492	         10.73881851	          2.81515166	          2.95612571	         -3.72460739	         -0.17449466	        -13.60697848	         14.68498112	         38.12027927	         -0.87310680	        -13.84268007	         19.37648663	         27.66523471	          0.66429821	          0.48932901	          0.32902205	          0.21856089	          0.07226931	          0.16757961	          0.70259378	          0.23159988	          0.60495045	          0.05000001	          0.05000000	          0.08188476	          0.30513467	          0.54619704	          0.45906106	          0.30953684	          0.05000000	          0.05126153	          0.20228509	          0.53255465	          0.33994000	          0.27412000	          0.05000000	          0.05000000	          0.50407664	          0.05000002	          0.70790634	          0.05000000	          0.12317120	          0.13469170	          0.15258439	          0.05000000	          0.05000000	          0.05000000	          0.60018715	          0.41819544	          0.29250038	          0.29399793	          0.09805310	          0.05428445	          0.51389985	          0.49971770	          0.46027691	          0.08031582	          0.05000000	          0.05000000	          0.15750829	          0.12682362	          0.07794524	          0.05929388	          0.05000000	          0.05000000	          0.16638488	          0.45868571	          0.78306146	          0.05428446	          0.05000000	          0.05000000	          0.05000000	          0.99812728	          0.92407286	          0.39411847	          0.05000000	          0.05000000	          0.05000000	          0.55764859	          0.65659119	          0.14541310	          0.46772431	          0.14501836	          0.98086020	          0.05428445	          0.05643706	          0.05216542	          0.14461206	          0.16828558	          0.09605680	          0.13522413	          0.15379009	          0.16375985	          0.12864603	          0.09278158	          0.09925760	          0.31010561	          0.65607419	          0.75958384	          0.22814271	          0.08360183	          0.05000000	          0.23050070	          0.08188484	          0.05000000	
          0.52441808	        -12.04100228	         -0.81388658	         -2.05718378	          1.81790285	          0.88458515	          0.00233581	         37.88509089	          5.44664854	          2.70713768	        -28.35984361	         -1.02887391	          0.96380178	         -0.13789887	          7.14777466	          2.16845576	          5.08256212	        -53.65419764	        -21.23859555	         11.67054460	         10.03192232	          2.86277219	          2.97112884	         -3.59548487	         -0.33074208	        -13.64720696	         14.68663801	         37.88663888	         -0.76451580	        -13.87433080	         19.37977833	         27.63151370	          0.71794111	          0.57945426	          0.44539542	          0.37679026	          0.15429503	          0.38006620	          0.64714078	          0.21332060	          0.55720406	          0.05001060	          0.05000000	          0.07542191	          0.28105158	          0.64742205	          0.53214118	          0.33662426	          0.05000000	          0.05428445	          0.18631951	          0.58473314	          0.37645357	          0.30871893	          0.05000000	          0.05000000	          0.46429183	          0.05000000	          0.78246721	          0.05000000	          0.18091698	          0.19351396	          0.20980967	          0.12122201	          0.05000000	          0.05300198	          0.59823091	          0.41343797	          0.36834062	          0.27079382	          0.09031415	          0.05000000	          0.47333973	          0.46027693	          0.42394904	          0.07397680	          0.05000004	          0.05428445	          0.14507678	          0.11681392	          0.07179333	          0.05461407	          0.06237728	          0.05000000	          0.16962277	          0.42248343	          0.72316311	          0.05000000	          0.05000000	          0.05000000	          0.05000000	          0.99860532	          0.85113943	          0.39519512	          0.05000000	          0.05000000	          0.05000000	          0.51363556	          0.60476900	          0.13393621	          0.43080865	          0.13357263	          0.98574589	          0.05000000	          0.05198270	          0.05000000	          0.13319839	          0.15500346	          0.08847541	          0.12455141	          0.14165204	          0.15083492	          0.13820405	          0.08545873	          0.09142359	          0.38497738	          0.63793359	          0.77941663	          0.21013629	          0.07700346	          0.05000000	          0.23651630	          0.07542198	          0.05000000	
          0.52955943	        -12.00341083	         -0.86183398	         -1.84094088	          1.83630003	          0.88206095	          0.00250019	         37.32162799	          5.65810145	          3.14077366	        -29.39295576	          1.14392943	          0.55873955	         -0.16368032	          8.19634556	          2.01903756	          4.84423479	        -55.41408887	        -20.17508599	         11.46062360	          9.36946950	          2.91121825	          2.98554426	         -3.45513989	         -0.47118182	        -13.69035582	         14.70570801	         37.61242695	         -0.63882886	        -13.90492812	         19.38365060	         27.59005315	          0.76647654	          0.68680426	          0.58696576	          0.34705167	          0.14211713	          0.53831271	          0.59606448	          0.19648404	          0.51322611	          0.05000000	          0.05000000	          0.06946916	          0.25886927	          0.69575102	          0.60238075	          0.36116214	          0.05000000	          0.05000001	          0.17161404	          0.64331296	          0.40658536	          0.34375160	          0.05000000	          0.05000000	          0.45808490	          0.05000001	          0.83799541	          0.05000000	          0.26049887	          0.27001354	          0.28756266	          0.30592977	          0.29250037	          0.24996877	          0.58339967	          0.38080693	          0.33926932	          0.24942111	          0.08890142	          0.06946916	          0.43598087	          0.42394906	          0.39048840	          0.06813810	          0.05000000	          0.05000000	          0.13362643	          0.10759426	          0.06612696	          0.06672071	          0.12052013	          0.05000000	          0.19018867	          0.38913846	          0.68190703	          0.05138530	          0.05000000	          0.05000000	          0.05000000	          0.99896133	          0.87653918	          0.45162288	          0.05000000	          0.05000000	          0.05000000	          0.47309630	          0.55703694	          0.12336515	          0.39680660	          0.12303026	          0.97999382	          0.05000000	          0.05000000	          0.05000000	          0.12268556	          0.14276964	          0.08149239	          0.11472105	          0.13047199	          0.13893011	          0.14723056	          0.07871384	          0.08420788	          0.45778690	          0.61939561	          0.79958826	          0.19355105	          0.07092588	          0.05428445	          0.28346003	          0.06946922	          0.05000000	
